<svg  xmlns="http://www.w3.org/2000/svg" width="343.0000122070312" height="86.17241685989454" viewBox="0 0 406 102" class="css-1j8o68f">
	<defs id="SvgjsDefs2470">
	</defs>
	<g id="SvgjsG2471" featurekey="symbolFeature-0" transform="matrix(1.2437810709221482,0,0,1.2437810709221482,-12.189054732269465,-10.925372851065777)" fill="#111111">
		<g>
			<path d="M63.5,12c-2.7,0-5,1.7-5.9,4.1h-19c-1.2,0-2.2,1-2.2,2.2c0,1.2,1,2.2,2.2,2.2h19c0.9,2.4,3.2,4.1,5.9,4.1   c3.5,0,6.3-2.8,6.3-6.3S67,12,63.5,12z M63.5,22.6c-2.4,0-4.3-1.9-4.3-4.3s1.9-4.3,4.3-4.3c2.4,0,4.3,1.9,4.3,4.3   S65.9,22.6,63.5,22.6z">
			</path>
			<path d="M83.9,33.1c-2.7,0-5,1.7-5.9,4.1H18.3c-1.2,0-2.2,1-2.2,2.2c0,1.2,1,2.2,2.2,2.2H78c0.9,2.4,3.2,4.1,5.9,4.1   c3.5,0,6.3-2.8,6.3-6.3C90.2,35.9,87.4,33.1,83.9,33.1z M83.9,43.7c-2.4,0-4.3-1.9-4.3-4.3s1.9-4.3,4.3-4.3s4.3,1.9,4.3,4.3   S86.3,43.7,83.9,43.7z">
			</path>
			<path d="M72.8,26.7H33.9c-0.9-2.4-3.2-4.1-5.9-4.1c-3.5,0-6.3,2.8-6.3,6.3s2.8,6.3,6.3,6.3c2.7,0,5-1.7,5.9-4.1h38.9   c1.2,0,2.2-1,2.2-2.2C75,27.7,74.1,26.7,72.8,26.7z M28,33.2c-2.4,0-4.3-1.9-4.3-4.3s1.9-4.3,4.3-4.3s4.3,1.9,4.3,4.3   S30.4,33.2,28,33.2z">
			</path>
			<path d="M83.5,47.8H22c-0.9-2.4-3.2-4.1-5.9-4.1c-3.5,0-6.3,2.8-6.3,6.3c0,3.5,2.8,6.3,6.3,6.3c2.7,0,5-1.7,5.9-4.1h61.5   c1.2,0,2.2-1,2.2-2.2C85.7,48.8,84.7,47.8,83.5,47.8z M16.1,54.3c-2.4,0-4.3-1.9-4.3-4.3c0-2.4,1.9-4.3,4.3-4.3s4.3,1.9,4.3,4.3   C20.4,52.4,18.5,54.3,16.1,54.3z">
			</path>
			<path d="M72.8,68.9H32.6c-0.9-2.4-3.2-4.1-5.9-4.1c-3.5,0-6.3,2.8-6.3,6.3c0,3.5,2.8,6.3,6.3,6.3c2.7,0,5-1.7,5.9-4.1h40.2   c1.2,0,2.2-1,2.2-2.2C75,69.9,74.1,68.9,72.8,68.9z M26.7,75.4c-2.4,0-4.3-1.9-4.3-4.3c0-2.4,1.9-4.3,4.3-4.3s4.3,1.9,4.3,4.3   C31,73.5,29.1,75.4,26.7,75.4z">
			</path>
			<path d="M83.9,54.2c-2.7,0-5,1.7-5.9,4.1H18.3c-1.2,0-2.2,1-2.2,2.2c0,1.2,1,2.2,2.2,2.2H78c0.9,2.4,3.2,4.1,5.9,4.1   c3.5,0,6.3-2.8,6.3-6.3C90.2,57.1,87.4,54.2,83.9,54.2z M83.9,64.8c-2.4,0-4.3-1.9-4.3-4.3s1.9-4.3,4.3-4.3s4.3,1.9,4.3,4.3   S86.3,64.8,83.9,64.8z">
			</path>
			<path d="M62.4,75.3c-2.7,0-5,1.7-5.9,4.1H38.7c-1.2,0-2.2,1-2.2,2.2c0,1.2,1,2.2,2.2,2.2h17.9c0.9,2.4,3.2,4.1,5.9,4.1   c3.5,0,6.3-2.8,6.3-6.3S65.9,75.3,62.4,75.3z M62.4,85.9c-2.4,0-4.3-1.9-4.3-4.3s1.9-4.3,4.3-4.3c2.4,0,4.3,1.9,4.3,4.3   S64.8,85.9,62.4,85.9z">
			</path>
		</g>
	</g>
	<g id="SvgjsG2472" featurekey="textGroupContainer" transform="matrix(1,0,0,1,405,0)" fill="#111111">
		<rect y="0" height="1" width="1" opacity="0">
		</rect>
		<rect y="0" x="-285" width="3" height="102">
		</rect>
	</g>
	<g id="SvgjsG2473" featurekey="vMvB0T-0" transform="matrix(3.6592506018254487,0,0,3.6592506018254487,132.43793959123664,3.3126469666288827)" fill="#111111">
		<path d="M9.02 11.64 l-0.02 -1.48 l0 -3.82 q0.62 -0.12 1.61 -0.12 t1.59 0.12 l0 13.66 q-0.64 0.12 -1.6 0.12 t-1.6 -0.12 l0 -4.24 l0.02 -1.48 l-1 0.02 l-2.32 0 l-1 -0.02 l0.02 1.48 l0 4.24 q-0.62 0.12 -1.6 0.12 t-1.6 -0.12 l0 -13.66 q0.62 -0.12 1.6 -0.12 t1.6 0.12 l0 3.82 l-0.02 1.48 l1 -0.02 l2.32 0 z M18.560000000000002 17.14 q-0.54 0 -0.8 -0.02 l-0.86 2.9 q-0.48 0.12 -1.34 0.12 q-0.96 0 -1.56 -0.22 l-0.1 -0.16 l4.4 -13.42 q0.78 -0.12 1.82 -0.12 q1.18 0 1.88 0.14 l4.32 13.44 q-0.7 0.38 -1.58 0.38 q-1.04 0 -1.46 -0.36 t-0.72 -1.38 l-0.38 -1.32 q-0.26 0.02 -0.78 0.02 l-2.84 0 z M18.5 14.620000000000001 l0.8 -0.02 l1.46 0 q0.1 0 0.35 0.01 t0.37 0.01 l-0.34 -1.24 q-0.48 -1.68 -1.1 -4.12 l-0.12 0 q-0.16 0.86 -0.96 3.82 z M37.8 10.56 q0 0.66 -0.2 1.25 t-0.53 1.06 t-0.78 0.82 t-0.93 0.53 q1.04 0.38 1.54 1.84 l0.6 1.7 q0.34 1 1 1.48 q-0.3 0.4 -0.9 0.67 t-1.32 0.27 t-1.12 -0.41 t-0.74 -1.43 l-0.72 -2.1 q-0.22 -0.6 -0.59 -0.92 t-1.11 -0.32 l-0.82 0 l0 5 q-0.64 0.12 -1.6 0.12 t-1.58 -0.12 l0 -13.56 l0.14 -0.14 q1.74 -0.04 2.93 -0.06 t1.87 -0.02 q1.1 0 2 0.27 t1.53 0.81 t0.98 1.36 t0.35 1.9 z M31.18 8.62 l0 3.92 q0.9 0 1.54 -0.03 t1.03 -0.24 t0.59 -0.59 t0.2 -1.1 q0 -1.94 -1.88 -1.94 l-0.83 0 t-0.65 -0.02 z M40.44 6.300000000000001 q1.62 -0.04 2.77 -0.06 t1.85 -0.02 q2.18 0 3.43 0.91 t1.25 2.73 q0 0.88 -0.5 1.64 t-1.28 1.1 q0.5 0.16 0.95 0.51 t0.77 0.82 t0.51 1.02 t0.19 1.13 q0 2.06 -1.31 3.05 t-3.71 0.99 q-0.74 0 -1.96 -0.02 t-2.96 -0.06 l-0.14 -0.14 l0 -13.46 z M45.120000000000005 13.98 l-1.66 0 l0 3.9 q0.52 -0.02 1.17 0 t1.21 -0.1 t0.94 -0.58 t0.38 -1.28 q0 -0.78 -0.49 -1.36 t-1.55 -0.58 z M43.46 8.48 l0 3.22 l1.42 0 q0.96 0 1.35 -0.47 t0.39 -1.15 t-0.4 -1.13 t-1.34 -0.45 l-0.81 0 t-0.61 -0.02 z M52.64 20 l0 -13.66 q0.62 -0.12 1.6 -0.12 t1.62 0.12 l0 13.66 q-0.64 0.12 -1.62 0.12 t-1.6 -0.12 z M69.7 6.199999999999999 l0.14 0.14 l0 13.6 q-0.8 0.18 -1.89 0.18 t-1.93 -0.12 l-3.14 -7.16 q-0.56 -1.22 -1.14 -2.82 l-0.06 0.02 q0.24 2.92 0.24 5.98 l0 3.98 q-0.62 0.12 -1.5 0.12 t-1.48 -0.12 l0 -13.6 q0.76 -0.18 1.83 -0.18 t1.91 0.12 l3.1 7.14 q0.84 1.98 1.24 3.04 l0.08 -0.04 q-0.24 -2.78 -0.24 -5.9 l0 -2.44 q0 -1.04 0.42 -1.49 t1.36 -0.45 l1.06 0 z">
		</path>
	</g>
</svg>
