<svg xmlns="http://www.w3.org/2000/svg" width="408.85" height="83.91812022637275" viewBox="0 0 406 83.33314617074069" class="css-1j8o68f">
	<defs id="SvgjsDefs5446">
	</defs>
	<g id="SvgjsG5447" featurekey="2ou6gm-0" transform="matrix(0.1858467828939561,0,0,0.1858467828939561,-5.910293726507266,-5.909922237118852)" fill="#111111">
		<path xmlns="http://www.w3.org/2000/svg" d="M451.764,300.448v-88.911c16.14-2.96,28.435-17.067,28.435-34.046c0-19.119-15.567-34.671-34.686-34.671  c-7.303,0-14.067,2.295-19.663,6.165l-62.845-62.832c3.88-5.597,6.184-12.363,6.184-19.674c0-19.119-15.567-34.679-34.686-34.679  c-16.981,0-31.096,12.295-34.054,28.435h-87.43c-2.958-16.141-17.066-28.435-34.047-28.435c-19.119,0-34.679,15.559-34.679,34.679  c0,6.925,2.091,13.349,5.603,18.769l-63.742,63.749c-5.597-3.876-12.363-6.178-19.673-6.178c-19.119,0-34.679,15.552-34.679,34.671  c0,16.981,12.295,31.089,28.435,34.047v88.909c-16.141,2.959-28.435,17.073-28.435,34.054c0,19.119,15.559,34.686,34.679,34.686  c7.307,0,14.071-2.3,19.666-6.177l62.842,62.836c-3.872,5.597-6.168,12.361-6.168,19.666c0,19.119,15.552,34.686,34.671,34.686  c16.979,0,31.086-12.296,34.046-28.435h88.911c2.961,16.14,17.074,28.435,34.054,28.435c19.119,0,34.686-15.567,34.686-34.686  c0-7.305-2.299-14.07-6.175-19.668l62.832-62.832c5.598,3.876,12.363,6.175,19.668,6.175c19.119,0,34.686-15.567,34.686-34.686  C480.199,317.522,467.904,303.409,451.764,300.448z M445.513,155.307c12.243,0,22.184,9.956,22.184,22.184  c0,12.235-9.941,22.192-22.184,22.192s-22.184-9.956-22.184-22.192C423.329,165.263,433.27,155.307,445.513,155.307z   M417.01,157.817c-3.88,5.597-6.183,12.363-6.183,19.674c0,1.351,0.248,2.635,0.399,3.946l-53.551,5.839  c-4.839-10.636-14.88-18.298-26.868-19.926l-3.633-67.012c2.367,0.513,4.81,0.814,7.329,0.814c7.303,0,14.067-2.295,19.663-6.165  L417.01,157.817z M170.864,233.917c3.351,2.082,7.034,3.678,11.014,4.52l-1.824,48.092c-11.209,1.76-20.568,8.865-25.506,18.66  l-46.011,10.132L170.864,233.917z M166.864,204.523c0-12.228,9.956-22.184,22.184-22.184c12.235,0,22.192,9.956,22.192,22.184  c0,12.235-9.956,22.192-22.192,22.192C176.82,226.715,166.864,216.759,166.864,204.523z M185.412,298.489  c12.235,0,22.192,9.941,22.192,22.184s-9.956,22.184-22.192,22.184s-22.192-9.941-22.192-22.184S173.176,298.489,185.412,298.489z   M190.618,354.832c9.747-1.487,18.213-6.922,23.522-14.76l32.394,22.78l-56.518,41.73L190.618,354.832z M219.17,328.344  c0.563-2.476,0.921-5.028,0.921-7.671c0-16.67-11.835-30.626-27.539-33.931l1.823-48.08c16.583-2.587,29.353-16.844,29.353-34.139  c0-7.093-2.158-13.683-5.828-19.182l40.179-33.766l38.892,31.411c-3.436,5.379-5.495,11.722-5.495,18.564  c0,17.486,13.066,31.845,29.917,34.196l2.682,47.126c-15.724,3.288-27.582,17.244-27.582,33.928c0,2.887,0.458,5.651,1.127,8.334  l-40.492,29.898L219.17,328.344z M303.978,201.55c0-12.228,9.941-22.184,22.184-22.184c12.228,0,22.169,9.956,22.169,22.184  c0,12.235-9.941,22.192-22.169,22.192C313.918,223.742,303.978,213.786,303.978,201.55z M302.908,336.763  c5.513,7.779,14.142,13.075,24.052,14.297l1.062,53.821l-60.117-42.27L302.908,336.763z M308.994,316.8  c0-12.228,9.941-22.169,22.184-22.169c12.243,0,22.184,9.941,22.184,22.169c0,12.243-9.941,22.184-22.184,22.184  C318.935,338.984,308.994,329.043,308.994,316.8z M336.574,282.674l-2.696-47.381c3.93-0.901,7.594-2.467,10.893-4.581  l61.741,78.586l-45.012-8.985C356.439,291.056,347.376,284.38,336.574,282.674z M334.501,44.288  c12.243,0,22.184,9.956,22.184,22.192c0,6.093-2.472,11.618-6.464,15.633c-0.018,0.018-0.044,0.023-0.062,0.041  c-0.016,0.016-0.02,0.037-0.035,0.053c-4.012,3.985-9.53,6.457-15.623,6.457c-12.243,0-22.184-9.956-22.184-22.184  C312.318,54.244,322.258,44.288,334.501,44.288z M314.848,103.865l3.476,63.986c-4.725,1.1-9.036,3.186-12.803,6.001l-37.707-30.458  L314.848,103.865z M213.017,72.723h87.43c1.325,7.226,4.864,13.663,9.931,18.583l-52.463,44.091l-54.706-44.19  C208.217,86.301,211.703,79.897,213.017,72.723z M248.178,143.58l-39.029,32.8c-3.761-2.694-8.047-4.678-12.716-5.697l2.418-66.942  L248.178,143.58z M178.97,44.288c12.235,0,22.192,9.956,22.192,22.192c0,8.005-4.306,14.971-10.686,18.874  c-0.003,0.001-0.007,0.001-0.01,0.002c-0.005,0.002-0.007,0.009-0.011,0.01c-3.361,2.051-7.267,3.298-11.485,3.298  c-12.235,0-22.192-9.956-22.192-22.184C156.778,54.244,166.734,44.288,178.97,44.288z M158.49,94.31  c5.756,4.246,12.796,6.841,20.48,6.841c2.582,0,5.08-0.331,7.502-0.868l-2.531,70.085c-11.589,1.732-21.267,9.142-26.131,19.376  l-57.081-8.085c0.169-1.383,0.421-2.741,0.421-4.168c0-7.306-2.298-14.07-6.171-19.665L158.49,94.31z M44.288,177.491  c0-12.228,9.956-22.184,22.192-22.184c12.228,0,22.184,9.956,22.184,22.184c0,12.235-9.956,22.192-22.184,22.192  C54.244,199.682,44.288,189.726,44.288,177.491z M82.179,350.158c-0.008,0.008-0.018,0.01-0.026,0.017  c-0.009,0.009-0.01,0.019-0.019,0.028c-4.016,4.003-9.551,6.483-15.655,6.483c-12.235,0-22.192-9.941-22.192-22.184  s9.956-22.184,22.192-22.184c12.228,0,22.184,9.941,22.184,22.184C88.664,340.611,86.182,346.144,82.179,350.158z M72.723,300.447  v-88.909c10.534-1.931,19.299-8.657,24.2-17.804l57.717,8.175c-0.067,0.879-0.264,1.719-0.264,2.615  c0,7.903,2.761,15.111,7.229,20.95L94.05,313.705C88.915,306.912,81.42,302.041,72.723,300.447z M94.979,354.173  c3.874-5.598,6.172-12.364,6.172-19.671c0-1.596-0.261-3.122-0.471-4.662l50.245-11.064c-0.035,0.641-0.192,1.247-0.192,1.897  c0,16.62,11.769,30.526,27.4,33.887l-0.682,56.271c-7.294,0.009-14.045,2.306-19.631,6.177L94.979,354.173z M177.491,467.697  c-12.228,0-22.184-9.941-22.184-22.184c0-6.088,2.468-11.602,6.447-15.612c0.021-0.021,0.05-0.026,0.071-0.047  c0.022-0.022,0.029-0.052,0.05-0.075c4.013-3.982,9.53-6.45,15.615-6.45c12.235,0,22.192,9.941,22.192,22.184  S189.726,467.697,177.491,467.697z M300.448,439.262h-88.911c-1.803-9.833-7.764-18.155-15.99-23.218l61.765-45.611l62.361,43.854  C309.792,419.004,302.481,428.183,300.448,439.262z M334.501,467.697c-12.243,0-22.184-9.941-22.184-22.184  s9.941-22.184,22.184-22.184c6.079,0,11.583,2.46,15.592,6.426c0.029,0.03,0.037,0.071,0.067,0.1s0.07,0.038,0.1,0.067  c3.966,4.009,6.426,9.513,6.426,15.592C356.685,457.756,346.745,467.697,334.501,467.697z M354.17,417.001  c-3.986-2.76-8.574-4.662-13.525-5.554l-1.192-61.071c15.12-3.737,26.411-17.323,26.411-33.577c0-1.003-0.212-1.948-0.296-2.929  l47.276,9.438c-1.216,3.532-2.017,7.256-2.017,11.193c0,7.305,2.299,14.07,6.175,19.668L354.17,417.001z M353.909,222.13  c4.293-5.774,6.924-12.849,6.924-20.58c0-0.698-0.165-1.351-0.206-2.039l54.35-5.925c4.887,9.221,13.695,16.009,24.285,17.951  v88.911c-6.534,1.199-12.38,4.256-17.09,8.572L353.909,222.13z M445.513,356.685c-6.105,0-11.635-2.476-15.648-6.472  c-0.011-0.011-0.014-0.027-0.026-0.038s-0.027-0.014-0.038-0.026c-3.997-4.013-6.472-9.543-6.472-15.648  c0-12.243,9.941-22.184,22.184-22.184s22.184,9.941,22.184,22.184S457.756,356.685,445.513,356.685z">
		</path>
	</g>
	<g id="SvgjsG5448" featurekey="textGroupContainer" transform="matrix(1,0,0,1,405,6)" fill="#111111">
		<rect xmlns="http://www.w3.org/2000/svg" y="0" height="1" width="1" opacity="0">
		</rect>
		<rect xmlns="http://www.w3.org/2000/svg" y="0" x="-302" width="3" height="72">
		</rect>
	</g>
	<g id="SvgjsG5449" featurekey="kZnDdN-0" transform="matrix(2.891009029082049,0,0,2.891009029082049,117.12604608135655,1.854867142742883)" fill="#111111">
		<path d="M8.94 7.76 l2.4 0 l0 12.24 l-2.4 0 l0 -5 l-5.2 0 l0 5 l-2.4 0 l0 -12.24 l2.4 0 l0 5 l5.2 0 l0 -5 z M21.72 17.240000000000002 l-5.12 0 l-1.04 2.76 l-2.6 0 l5 -12.24 l2.4 0 l5 12.24 l-2.6 0 z M17.439999999999998 15 l3.44 0 l-1.72 -4.58 z M34.32 20 l-4.9 -6.12 l2.56 0 c1.32 0 2.22 -0.52 2.22 -1.94 c0 -0.66 -0.18 -1.16 -0.54 -1.48 c-0.38 -0.3 -0.8 -0.46 -1.28 -0.46 l-3 0 l0 10 l-2.4 0 l0 -12.24 l5.4 0 c2.28 0 4.22 1.72 4.22 4.02 c0 1.72 -1.26 3.26 -2.86 3.8 l3.56 4.42 l-2.98 0 z M47.74 17.759999999999998 l0 2.24 l-8.8 0 l0 -12.24 l2.4 0 l0 10 l6.4 0 z M57.26 17.240000000000002 l-5.12 0 l-1.04 2.76 l-2.6 0 l5 -12.24 l2.4 0 l5 12.24 l-2.6 0 z M52.98 15 l3.44 0 l-1.72 -4.58 z M62.52 20 l0 -12.24 l5.4 0 c2.28 0 4.22 1.72 4.22 4.02 c0 2.32 -2 4.02 -4.22 4.02 l-3 0 l0 4.2 l-2.4 0 z M67.92 10 l-3 0 l0 3.56 l3 0 c1.02 0 1.82 -0.76 1.82 -1.78 c0 -1.06 -0.78 -1.78 -1.82 -1.78 z M73.44 19.68 l0 -2.26 c0.22 0.06 0.5 0.12 0.84 0.16 c0.32 0.06 0.66 0.1 1.04 0.12 c0.7 0.08 1.44 0.12 2.16 0.12 c1.02 0 1.78 -0.1 2.24 -0.28 s0.7 -0.52 0.7 -0.98 c0 -0.72 -0.78 -1.02 -1.34 -1.22 c-0.4 -0.14 -0.94 -0.28 -1.6 -0.44 c-0.32 -0.08 -0.7 -0.18 -1.16 -0.3 c-1.66 -0.44 -2.8 -1.6 -2.8 -3.34 c0 -2.86 2.7 -3.6 5.02 -3.6 c0.26 0 0.54 0 0.86 0.02 s0.64 0.06 0.98 0.08 c0.6 0.08 1.24 0.16 1.82 0.34 l0 2.26 c-0.18 -0.06 -0.42 -0.1 -0.72 -0.16 c-0.3 -0.04 -0.64 -0.08 -0.98 -0.12 c-0.7 -0.08 -1.4 -0.12 -2.1 -0.12 c-1 0 -1.68 0.1 -2.04 0.32 s-0.54 0.52 -0.54 0.92 c0 0.22 0.04 0.42 0.14 0.56 c0.26 0.42 0.84 0.62 1.28 0.76 c0.34 0.1 0.74 0.22 1.24 0.36 c0.52 0.14 1.04 0.28 1.54 0.42 c1.64 0.46 2.7 1.36 2.7 3.12 c0 2.98 -2.96 3.7 -5.36 3.7 c-1.32 0 -2.62 -0.16 -3.92 -0.44 z M84.78 7.76 l8.8 0 l0 2.24 l-6.4 0 l0 2.76 l5.2 0 l0 2.24 l-5.2 0 l0 2.76 l6.4 0 l0 2.24 l-8.8 0 l0 -12.24 z">
		</path>
	</g>
</svg>
