<?xml version="1.0" standalone="no"?>
<!DOCTYPE svg PUBLIC "-//W3C//DTD SVG 20010904//EN"
 "http://www.w3.org/TR/2001/REC-SVG-20010904/DTD/svg10.dtd">
<svg version="1.0" xmlns="http://www.w3.org/2000/svg"
 width="260.000000pt" height="260.000000pt" viewBox="0 0 260.000000 260.000000"
 preserveAspectRatio="xMidYMid meet">
<metadata>
Created by potrace 1.14, written by Peter Selinger 2001-2017
</metadata>
<g transform="translate(0.000000,260.000000) scale(0.100000,-0.100000)"
fill="#000000" stroke="none">
<path d="M1545 2116 c-17 -7 -43 -27 -57 -45 l-27 -31 -214 0 c-195 0 -215 -2
-230 -18 -22 -24 -21 -38 3 -62 19 -19 33 -20 233 -20 l212 0 28 -35 c53 -66
147 -66 206 1 57 64 35 171 -42 207 -42 20 -71 21 -112 3z m84 -37 c61 -21 79
-97 35 -148 -50 -60 -148 -30 -160 50 -5 28 -1 41 20 66 15 18 37 34 49 36 12
2 22 5 23 6 1 0 15 -4 33 -10z"/>
<path d="M776 1890 c-55 -17 -96 -73 -96 -132 0 -66 70 -138 133 -138 42 0 98
30 116 62 l16 28 436 0 c410 0 437 1 452 18 23 25 21 48 -5 66 -20 14 -80 16
-454 16 l-431 0 -12 23 c-24 45 -100 73 -155 57z m108 -71 c47 -55 29 -127
-38 -149 -63 -20 -121 23 -121 92 0 83 105 121 159 57z"/>
<path d="M2004 1659 c-18 -5 -46 -25 -62 -44 l-31 -35 -666 -2 c-579 -3 -667
-5 -675 -18 -13 -21 -12 -54 2 -68 9 -9 173 -12 678 -12 l665 0 16 -28 c18
-32 74 -62 116 -62 42 0 94 32 115 71 58 109 -39 231 -158 198z m101 -61 c76
-67 5 -189 -92 -157 -64 21 -83 101 -34 150 37 37 88 39 126 7z"/>
<path d="M483 1410 c-86 -52 -82 -189 6 -235 63 -32 157 -7 183 50 l11 25 687
0 c520 0 689 3 698 12 7 7 12 21 12 33 0 12 -5 26 -12 33 -9 9 -177 12 -694
12 l-683 0 -21 30 c-43 60 -126 78 -187 40z m138 -49 c73 -74 -6 -191 -102
-151 -30 13 -59 55 -59 85 0 28 30 76 53 85 43 17 78 11 108 -19z"/>
<path d="M1975 1181 c-17 -10 -39 -30 -48 -45 l-17 -26 -663 0 c-502 0 -666
-3 -675 -12 -15 -15 -15 -51 0 -66 9 -9 173 -12 674 -12 l663 0 21 -30 c76
-107 250 -59 250 68 0 110 -114 179 -205 123z m114 -35 c27 -14 51 -53 51 -82
0 -28 -28 -70 -55 -82 -42 -19 -74 -14 -106 17 -78 78 11 198 110 147z"/>
<path d="M719 947 c-90 -60 -88 -186 3 -233 63 -33 150 -12 179 43 l12 23 449
0 c435 0 449 1 468 20 24 24 25 43 4 64 -14 14 -69 16 -463 16 l-447 0 -23 31
c-44 59 -124 75 -182 36z m111 -32 c86 -44 56 -175 -39 -175 -47 0 -77 21 -91
64 -12 37 -3 72 26 97 36 32 63 35 104 14z"/>
<path d="M1512 725 c-18 -8 -40 -28 -50 -45 l-17 -30 -207 0 c-202 0 -207 0
-222 -22 -20 -29 -20 -34 4 -58 19 -19 33 -20 220 -20 l201 0 30 -35 c90 -102
251 -33 236 102 -10 94 -106 147 -195 108z m125 -57 c30 -28 38 -70 19 -107
-20 -37 -44 -51 -89 -51 -95 0 -122 137 -34 176 38 16 74 10 104 -18z"/>
</g>
</svg>
